<?xml version="1.0" standalone="no"?>
<!DOCTYPE svg PUBLIC "-//W3C//DTD SVG 20010904//EN"
 "http://www.w3.org/TR/2001/REC-SVG-20010904/DTD/svg10.dtd">
<svg version="1.0" xmlns="http://www.w3.org/2000/svg"
 width="96.000000pt" height="96.000000pt" viewBox="0 0 96.000000 96.000000"
 preserveAspectRatio="xMidYMid meet">

<g transform="translate(0.000000,96.000000) scale(0.100000,-0.100000)"
fill="#000000" stroke="none">
<path d="M227 766 c-195 -54 -250 -288 -112 -476 73 -99 210 -133 311 -76 27
15 62 26 84 26 45 0 89 33 114 84 13 28 15 56 9 170 -6 136 -23 190 -23 75 0
-78 -18 -75 -42 8 -42 143 -197 229 -341 189z m185 -36 c120 -63 162 -173 123
-325 -42 -159 -169 -233 -303 -175 -85 36 -139 113 -163 227 -25 120 22 220
125 270 44 21 61 23 123 19 39 -2 82 -10 95 -16z m194 -275 c19 -47 18 -71 -7
-123 -20 -40 -79 -85 -94 -70 -3 3 6 25 19 49 22 40 31 68 50 152 8 36 14 34
32 -8z"/>
<path d="M215 654 c-22 -8 -50 -26 -62 -40 -48 -53 -17 -177 62 -254 32 -31
42 -35 90 -35 48 0 58 4 90 35 50 49 85 123 85 183 0 40 -5 54 -28 77 -49 49
-154 64 -237 34z m191 -31 c33 -15 54 -49 54 -86 0 -34 -43 -119 -78 -154 -62
-61 -130 -48 -182 34 -77 122 -62 193 48 220 53 13 112 8 158 -14z"/>
<path d="M281 291 c-21 -13 -4 -31 30 -31 24 0 30 4 27 18 -4 19 -36 27 -57
13z"/>
<path d="M786 663 c-10 -10 -7 -361 4 -368 5 -3 10 65 12 181 3 174 0 203 -16
187z"/>
<path d="M725 588 c-10 -25 -1 -223 10 -223 13 0 19 215 6 228 -7 7 -12 5 -16
-5z"/>
<path d="M847 593 c-11 -10 -8 -221 3 -228 6 -4 10 37 10 114 0 67 -1 121 -3
121 -2 0 -7 -3 -10 -7z"/>
<path d="M670 480 c0 -47 4 -80 10 -80 6 0 10 33 10 80 0 47 -4 80 -10 80 -6
0 -10 -33 -10 -80z"/>
<path d="M900 480 c0 -27 5 -50 10 -50 6 0 10 23 10 50 0 28 -4 50 -10 50 -5
0 -10 -22 -10 -50z"/>
</g>
</svg>
