<svg id="Product_Icon_Phones" data-name="Product / Icon / Phones" xmlns="http://www.w3.org/2000/svg" width="67" height="67" viewBox="0 0 67 67">
  <rect id="Container" width="67" height="67" fill="rgba(255,255,255,0)"/>
  <path id="Icon_Light_Product_Phone" data-name="Icon / Light / Product / Phone" d="M4.538,64.924A4.536,4.536,0,0,1,0,60.549l0-.163V4.538A4.539,4.539,0,0,1,4.375,0l.163,0H33.859a4.539,4.539,0,0,1,4.535,4.375l0,.163V60.387a4.538,4.538,0,0,1-4.376,4.534l-.162,0ZM2.094,60.387A2.442,2.442,0,0,0,4.4,62.826l.134,0H33.859a2.443,2.443,0,0,0,2.44-2.31l0-.134V59.8a4.277,4.277,0,0,1-2.236.759l-.208.005H4.538A4.279,4.279,0,0,1,2.094,59.8Zm0-52.543V57.081a2.629,2.629,0,0,0,2.3,1.73l.144,0H33.859A2.636,2.636,0,0,0,36.3,57.079V7.846A2.628,2.628,0,0,0,34,6.113l-.145,0H4.538A2.639,2.639,0,0,0,2.094,7.844ZM33.859,4.363a4.283,4.283,0,0,1,2.444.764V4.538A2.441,2.441,0,0,0,33.992,2.1l-.134,0H4.538A2.445,2.445,0,0,0,2.1,4.4l0,.133v.589A4.281,4.281,0,0,1,4.33,4.369l.207-.006ZM17.453,11.331A1.745,1.745,0,1,1,19.2,13.077,1.746,1.746,0,0,1,17.453,11.331Z" transform="translate(14 1)"/>
</svg>
