<svg id="support_icon" xmlns="http://www.w3.org/2000/svg" width="55" height="55" viewBox="0 0 55 55">
  <rect id="Container" width="55" height="55" fill="rgba(255,255,255,0)"/>
  <path id="Icon_Regular_Service_Repair_support" data-name="Icon / Regular / Service / Repair_support" d="M39.626,51.15l-.107-.1-7.986-7.982a1.438,1.438,0,0,1-.069-1.952l.069-.075.866-.865-5.008-5.007L13.778,48.779a7.381,7.381,0,0,1-10.156.27l-.144-.132-.141-.138A7.381,7.381,0,0,1,3.2,38.484l.138-.14L16.951,24.733l-3.815-3.814L7.7,20.1a1.429,1.429,0,0,1-.876-.488l-.071-.089L.272,10.54A1.426,1.426,0,0,1,.35,8.767l.072-.078,7.1-7.1a1.431,1.431,0,0,1,1.763-.208l.088.059,8.98,6.472a1.418,1.418,0,0,1,.557.833l.022.113.828,5.441,3.2,3.2A14.7,14.7,0,0,1,26.633,4.683l.183-.192L27,4.307l.174-.172A14.7,14.7,0,0,1,37.406,0,14.762,14.762,0,0,1,44.6,1.875a1.43,1.43,0,0,1,.381,2.188l-.069.074-7.772,7.77,3.085,3.085L48,7.222a1.432,1.432,0,0,1,2.153.146l.056.081.053.085A14.709,14.709,0,0,1,34.623,29.163l4.4,4.394.866-.866a1.434,1.434,0,0,1,1.951-.069l.075.069,7.983,7.98A3.722,3.722,0,0,1,50,45.83l-.1.109-5.11,5.109a3.725,3.725,0,0,1-5.158.1ZM40.9,35.729l-6.326,6.323,6.97,6.969a.858.858,0,0,0,1.082.111l.069-.051.066-.06,5.111-5.108a.857.857,0,0,0,.058-1.15l-.06-.066L40.9,35.729h0ZM32.926,3.74a11.849,11.849,0,0,0-7.061,8.269,11.914,11.914,0,0,0,.3,6.45,1.432,1.432,0,0,1-.274,1.383l-.073.079L5.362,40.369a4.516,4.516,0,0,0,6.276,6.494l.114-.109L32.2,26.306a1.428,1.428,0,0,1,1.015-.42,1.446,1.446,0,0,1,.451.073,11.908,11.908,0,0,0,3.763.611A11.844,11.844,0,0,0,48.7,11.066l-.075-.222-.052-.142-7.331,7.329a1.432,1.432,0,0,1-1.869.136l-.082-.066-.075-.07L34.1,12.921a1.436,1.436,0,0,1-.069-1.951l.069-.075,7.329-7.328-.139-.049a11.883,11.883,0,0,0-8.364.223Zm-.943,26.836-2.566,2.566,5.008,5.006,2.567-2.566-5.009-5.007h0ZM3.309,9.853l5.411,7.5,5.31.8a1.452,1.452,0,0,1,.715.326l.084.078,4.148,4.147,2.568-2.567L17.4,16a1.432,1.432,0,0,1-.381-.686L17,15.2,16.19,9.889,8.685,4.48ZM6.6,43.37a2.34,2.34,0,1,1,2.34,2.34A2.342,2.342,0,0,1,6.6,43.37Zm1.816,0a.525.525,0,1,0,.525-.524A.526.526,0,0,0,8.416,43.37Z" transform="translate(1.429 1.431)"/>
</svg>
