<svg id="Icon_Regular_Information_Info" data-name="Icon / Regular / Information / Info" xmlns="http://www.w3.org/2000/svg" width="46" height="46" viewBox="0 0 46 46">
  <rect id="Container" width="46" height="46" fill="rgba(255,255,255,0)"/>
  <path id="Icon_Regular_Information_Info-2" data-name="Icon / Regular / Information / Info" d="M13.316,41.891A21.88,21.88,0,1,1,21.8,43.6,21.738,21.738,0,0,1,13.316,41.891Zm.933-37.97A19.471,19.471,0,1,0,21.8,2.4,19.34,19.34,0,0,0,14.249,3.921ZM20.6,34.74V19.646H17.969v-2.4H23V34.74Zm-1.2-23.479a1.917,1.917,0,1,1,1.916,1.962A1.939,1.939,0,0,1,19.407,11.26Z" transform="translate(1.197 1.198)"/>
</svg>
