<svg id="Icon_Light_Product_ETC" data-name="Icon / Light / Product / ETC" xmlns="http://www.w3.org/2000/svg" width="96" height="96" viewBox="0 0 96 96">
  <rect id="Container" width="96" height="96" fill="none"/>
  <path id="Icon_Light_Product_Accessories" data-name="Icon / Light / Product / Accessories" d="M13.551,93.665a22.252,22.252,0,1,1,8.638,1.745A22.112,22.112,0,0,1,13.551,93.665Zm-4.7-33.781A18.86,18.86,0,1,0,35.525,86.555,18.86,18.86,0,0,0,8.853,59.884ZM56.579,92.634a2.782,2.782,0,0,1-2.768-2.584l-.006-.19V56.58a2.782,2.782,0,0,1,2.585-2.768l.189-.006H89.86a2.781,2.781,0,0,1,2.768,2.584l.006.19V89.86a2.781,2.781,0,0,1-2.584,2.768l-.19.006Zm.555-3.329H89.307V57.135H57.134Zm7.451-46.674a22.257,22.257,0,1,1,8.635,1.744A22.12,22.12,0,0,1,64.585,42.632Zm-4.7-33.777A18.855,18.855,0,1,0,73.22,3.329,18.749,18.749,0,0,0,59.885,8.855ZM5.547,41.6a2.782,2.782,0,0,1-2.768-2.584l-.006-.19V5.549A2.781,2.781,0,0,1,5.357,2.781l.19-.006H38.828A2.781,2.781,0,0,1,41.6,5.359l.006.19v33.28A2.781,2.781,0,0,1,39.018,41.6l-.19.006ZM6.1,38.275H38.275V6.1H6.1Z" transform="translate(0)"/>
</svg>
