<svg id="Icon_Light_Product_Wearable_watch" data-name="Icon / Light / Product / Wearable_watch" xmlns="http://www.w3.org/2000/svg" width="67" height="67" viewBox="0 0 67 67">
  <rect id="Container" width="67" height="67" fill="rgba(255,255,255,0)"/>
  <path id="Icon_Light_Product_Wearable_watch-2" data-name="Icon / Light / Product / Wearable_watch" d="M10.089,64.906a1.75,1.75,0,0,1-1.742-1.63l0-.114,0-8.324-.006-.128a7.773,7.773,0,0,0-1.293-4.273L6.888,50.2,5.014,47.629a25.442,25.442,0,0,1,.029-30.392L6.855,14.75c.02-.029.037-.053.05-.073l.009-.013a7.679,7.679,0,0,0,1.407-4.2l.02-.353,0-.7V1.745A1.748,1.748,0,0,1,9.974,0l.115,0H40.871a1.747,1.747,0,0,1,1.741,1.63l0,.115,0,8.325.006.128a7.787,7.787,0,0,0,1.292,4.271l.128.2c.086.126.349.486.683.942l.076.1.021.028.022.03c.519.708,1.229,1.677,1.6,2.217a25.487,25.487,0,0,1,.19,28.66l-.342.5c-.372.533-.927,1.29-1.463,2.021L44.8,49.2l-.005.008-.016.022c-.362.492-.648.882-.736,1.014a7.7,7.7,0,0,0-1.406,4.2l-.02.357,0,.709v7.653a1.747,1.747,0,0,1-1.63,1.741l-.115,0Zm.321-10.6.017.3.008.167,0,.59v7.447H40.522l0-7.924,0-.156.006-.122a13.32,13.32,0,0,1,.19-1.752l-.2.154a25.448,25.448,0,0,1-30.281-.142A12.344,12.344,0,0,1,10.41,54.311ZM6.193,45.665l.214.31c.079.112.173.244.3.426a23.6,23.6,0,0,0,8.1,6.863,23.385,23.385,0,0,0,30.178-33.7l-.285-.421a23.566,23.566,0,0,0-8.208-7.319A23.29,23.29,0,0,0,25.475,9.073a23.491,23.491,0,0,0-5.57.668,23.2,23.2,0,0,0-5.087,1.9,23.61,23.61,0,0,0-8.1,6.851l-.3.425-.227.329-.007,0a23.395,23.395,0,0,0,0,26.43l.006,0h0ZM33.649,8.319a25.362,25.362,0,0,1,7.074,3.727A12.542,12.542,0,0,1,40.55,10.6l-.017-.3-.008-.163,0-.734V2.094H10.438l0,8.08-.006.124a13.29,13.29,0,0,1-.188,1.74,25.518,25.518,0,0,1,23.41-3.719ZM17.257,51.906a21.184,21.184,0,1,1,8.218,1.659A21.037,21.037,0,0,1,17.257,51.906Zm.679-37.3a19.432,19.432,0,1,0,7.539-1.522A19.307,19.307,0,0,0,17.936,14.608Z" transform="translate(7.677)"/>
</svg>
